<svg version="1.1" id="Capa_1" xmlns="http://www.w3.org/2000/svg" x="0" y="0" width="25" height="25" viewBox="408.445 285.14 25 25" xml:space="preserve"><path fill="#636363" d="M417.886 302.558h-2.64v-7.941h2.64v7.941zm-1.32-9.026h-.017c-.886 0-1.459-.611-1.459-1.372 0-.779.59-1.372 1.493-1.372.903 0 1.459.593 1.476 1.372 0 .762-.573 1.372-1.493 1.372zm10.837 9.026h-2.64v-4.249c0-1.067-.382-1.795-1.338-1.795-.729 0-1.163.491-1.354.966-.07.17-.087.407-.087.644v4.435h-2.639s.035-7.196 0-7.941h2.64v1.125c.35-.541.978-1.312 2.379-1.312 1.736 0 3.038 1.135 3.038 3.574v4.553h.001z" id="OUTLINE_copy_2"/><path fill="#636363" d="M432.445 286.14v23h-23v-23h23m1-1h-25v25h25v-25z"/></svg>